<?xml version="1.0" encoding="UTF-8"?>
<svg id="Calque_2" data-name="Calque 2" xmlns="http://www.w3.org/2000/svg" viewBox="0 0 315.14 285.72">
  <defs>
    <style>
      .cls-1 {
        fill: #132a42;
      }

      .cls-1, .cls-2, .cls-3, .cls-4 {
        stroke-width: 0px;
      }

      .cls-5 {
        stroke-width: 3px;
      }

      .cls-5, .cls-6 {
        stroke: #132a42;
        stroke-miterlimit: 10;
      }

      .cls-5, .cls-6, .cls-4 {
        fill: #484697;
      }

      .cls-2 {
        fill: #9c8052;
      }

      .cls-6 {
        stroke-width: 2px;
      }

      .cls-3 {
        fill: #183153;
      }
    </style>
  </defs>
  <g id="Calque_6" data-name="Calque 6">
    <g>
      <path class="cls-2" d="M44.55,282.45v-124.94H3.39c-.1,0-.15-.12-.08-.2L160.34,4.52l47.63,44.23s.08,0,.08-.03v-28.9h55.78v80l46.99,48.72c2.09,2.17.88,5.8-2.09,6.28l-32.47-.18v127.81H44.55Z"/>
      <path class="cls-3" d="M279.53,285.72H41.27v-124.94H3.39c-1.39,0-2.62-.83-3.14-2.12-.52-1.29-.22-2.74.78-3.71L160.29,0l44.48,41.31v-24.77h62.33v81.95l46.07,47.77c1.82,1.89,2.43,4.6,1.61,7.09-.83,2.49-2.95,4.29-5.54,4.71l-.27.04-29.44-.16v127.79ZM47.82,279.17h225.16v-127.83l35.37.2c.08-.04.16-.11.21-.26.09-.26-.05-.41-.11-.46l-47.91-49.67V23.1h-49.22v25.62c0,1.32-.78,2.52-2,3.05-1.21.53-2.62.29-3.59-.62l-45.34-42.11L11.18,154.23h36.64v124.94ZM210.2,46.34h0s0,0,0,0Z"/>
    </g>
    <g>
      <path class="cls-5" d="M73.56,190.39c0,2.55-.9,4.73-2.71,6.54-1.81,1.81-3.99,2.71-6.54,2.71h-1.6c-2.55,0-4.73-.9-6.54-2.71-1.81-1.81-2.71-3.98-2.71-6.53v-22.91c0-2.54.9-4.72,2.71-6.53,1.81-1.81,3.99-2.71,6.54-2.71h1.6c2.55,0,4.73.91,6.54,2.71,1.81,1.81,2.71,3.99,2.71,6.54v6.35h-6.04v-3.68c0-4.25-1.38-6.37-4.13-6.37-2.51,0-3.76,1.72-3.76,5.16v19.78c0,3.44,1.36,5.16,4.07,5.16,2.55,0,3.82-1.73,3.82-5.18v-5.37h6.04v7.03Z"/>
      <path class="cls-5" d="M96.75,199.09h-6.38l-1.5-9.13h-4.71l-1.55,9.13h-6.39l7.09-40.08,6.6.06,6.85,40.02ZM87.87,183.55l-1.3-9.74-1.3,9.74h2.59Z"/>
      <path class="cls-5" d="M120.24,190.41c0,2.55-.9,4.72-2.71,6.53-1.81,1.81-3.99,2.71-6.54,2.71h-1.6c-2.55,0-4.73-.9-6.54-2.71-1.81-1.81-2.71-3.98-2.71-6.53v-31.77h6.17v30.1c0,3.45,1.34,5.17,4.01,5.17,2.51,0,3.76-1.72,3.76-5.17v-30.1h6.17v31.77Z"/>
      <path class="cls-5" d="M143.99,190.39c0,2.55-.9,4.73-2.71,6.54-1.81,1.81-3.99,2.71-6.54,2.71h-1.6c-2.55,0-4.73-.9-6.54-2.71-1.81-1.81-2.71-3.98-2.71-6.53v-22.91c0-2.54.9-4.72,2.71-6.53,1.81-1.81,3.99-2.71,6.54-2.71h1.6c2.55,0,4.73.91,6.54,2.71,1.81,1.81,2.71,3.99,2.71,6.54v6.35h-6.04v-3.68c0-4.25-1.38-6.37-4.13-6.37-2.51,0-3.76,1.72-3.76,5.16v19.78c0,3.44,1.36,5.16,4.07,5.16,2.55,0,3.82-1.73,3.82-5.18v-5.37h6.04v7.03Z"/>
      <path class="cls-5" d="M166.19,199.09h-6.54v-17.27h-5.86v17.27h-6.54v-40.02h6.54v17.02h5.86v-17.02h6.54v40.02Z"/>
      <path class="cls-5" d="M188.39,193.35v5.74h-18.69v-40.02l18.69-.06v5.74h-12.27v10.79h12.27v5.74h-12.27v12.09h12.27Z"/>
      <path class="cls-5" d="M221.69,199.09h-6.41v-20.41l-5.55,20.41h-6.41l-5.06-20.84v20.84h-6.41v-40.02h6.84l8.2,28.4,7.79-28.4h7.02v40.02Z"/>
      <path class="cls-5" d="M245.92,199.09h-6.38l-1.5-9.13h-4.71l-1.55,9.13h-6.39l7.09-40.08,6.6.06,6.85,40.02ZM237.04,183.55l-1.3-9.74-1.3,9.74h2.59Z"/>
      <path class="cls-5" d="M269.6,199.09h-6.17v-9.81c0-2.38-.82-3.93-2.45-4.62-.94-.37-2.8-.55-5.57-.55v14.99h-6.41v-40.21l10.92-.06c2.55,0,4.73.91,6.54,2.72,1.81,1.81,2.71,3.99,2.71,6.55v6.92c0,1.24-.38,2.55-1.14,3.95-.76,1.4-1.68,2.33-2.74,2.78,1.15.54,2.14,1.36,2.96,2.47.9,1.24,1.36,2.45,1.36,3.64v11.24ZM263,173.35v-3.84c0-2.02-.31-3.41-.92-4.15-.61-.74-1.92-1.11-3.91-1.11h-2.75v14.25l3.85.06c2.49,0,3.73-1.73,3.73-5.2Z"/>
    </g>
    <path class="cls-6" d="M68.31,273.71h-5.72l-5.67-18.02v18.02h-5.18l-.16-33.04h5.75l5.81,18.46v-18.46h5.18v33.04Z"/>
    <g>
      <path class="cls-5" d="M117.81,273.71h-9.4v-35.49l-8.13,35.49h-9.4l-7.41-36.24v36.24h-9.4v-69.58h10.02l12.01,49.36,11.41-49.36h10.29v69.58Z"/>
      <path class="cls-5" d="M153.32,273.71h-9.35l-2.2-15.87h-6.91l-2.27,15.87h-9.36l10.39-69.68,9.67.11,10.03,69.58ZM140.31,246.69l-1.9-16.94-1.9,16.94h3.8Z"/>
      <path class="cls-5" d="M168.14,273.71h-9.4v-69.68l9.4.11v69.58Z"/>
      <path class="cls-5" d="M203.3,223.43h-9.04c0-3.4-.27-5.87-.81-7.43-.9-2.4-2.59-3.61-5.06-3.61-3.68,0-5.51,3.07-5.51,9.21,0,4,.24,6.85.73,8.56.91,3.14,2.63,4.71,5.17,4.71,3.81,0,7.19,1.55,10.12,4.66,2.93,3.1,4.4,6.87,4.4,11.29v8.78c0,4.43-1.33,8.21-3.99,11.35-2.66,3.14-5.86,4.71-9.61,4.71h-2.36c-3.75,0-6.95-1.57-9.61-4.72s-3.99-6.93-3.99-11.36v-4.61h9.04c-.06,7.36,1.9,11.04,5.87,11.04,2.29,0,3.85-1,4.7-3,.54-1.36.81-3.57.81-6.64,0-7.85-1.92-11.77-5.76-11.77s-7.25-1.53-10.21-4.6-4.45-6.85-4.45-11.35v-9.85c0-4.42,1.33-8.21,3.99-11.35,2.66-3.14,5.86-4.71,9.61-4.71h2.36c3.75,0,6.95,1.57,9.61,4.72,2.66,3.15,3.99,6.93,3.99,11.36v4.61Z"/>
      <path class="cls-5" d="M237.37,258.61c0,4.43-1.33,8.21-3.98,11.35-2.65,3.14-5.84,4.71-9.58,4.71h-2.35c-3.74,0-6.93-1.57-9.58-4.71-2.65-3.14-3.98-6.92-3.98-11.35v-39.82c0-4.42,1.32-8.21,3.98-11.35,2.65-3.14,5.84-4.71,9.58-4.71h2.35c3.73,0,6.93,1.57,9.58,4.71,2.65,3.14,3.98,6.92,3.98,11.35v39.82ZM228.33,255.73v-34.38c0-2.78-.24-4.8-.72-6.09-.78-1.92-2.2-2.88-4.25-2.88-4.28,0-6.42,2.99-6.42,8.97v34.38c0,5.98,1.96,8.97,5.87,8.97,3.67,0,5.51-2.99,5.51-8.97Z"/>
      <path class="cls-5" d="M270.71,273.71h-9.58l-9.49-37.95v37.95h-8.68l-.27-69.58h9.62l9.72,38.88v-38.88h8.68v69.58Z"/>
    </g>
    <path class="cls-6" d="M68.31,232.38v4.73h-16.36v-33.04l16.36-.05v4.73h-10.74v8.91h10.74v4.73h-10.74v9.98h10.74Z"/>
    <g>
      <rect class="cls-4" x="161.4" y="71.21" width="27.03" height="27.03"/>
      <path class="cls-1" d="M189.21,99.03h-28.59v-28.59h28.59v28.59ZM162.18,97.46h25.47v-25.47h-25.47v25.47Z"/>
    </g>
    <g>
      <rect class="cls-4" x="130.54" y="71.21" width="27.03" height="27.03"/>
      <path class="cls-1" d="M158.35,99.03h-28.59v-28.59h28.59v28.59ZM131.32,97.46h25.47v-25.47h-25.47v25.47Z"/>
    </g>
    <g>
      <rect class="cls-4" x="161.4" y="102.07" width="27.03" height="27.03"/>
      <path class="cls-1" d="M189.21,129.88h-28.59v-28.59h28.59v28.59ZM162.18,128.32h25.47v-25.47h-25.47v25.47Z"/>
    </g>
    <g>
      <rect class="cls-4" x="130.54" y="102.07" width="27.03" height="27.03"/>
      <path class="cls-1" d="M158.35,129.88h-28.59v-28.59h28.59v28.59ZM131.32,128.32h25.47v-25.47h-25.47v25.47Z"/>
    </g>
  </g>
</svg>