<?xml version="1.0" encoding="UTF-8"?>
<svg id="Calque_2" data-name="Calque 2" xmlns="http://www.w3.org/2000/svg" viewBox="0 0 121.83 28.55">
  <defs>
    <style>
      .cls-1 {
        stroke: #183253;
        stroke-width: .25px;
      }

      .cls-1, .cls-2 {
        fill: #9c8052;
        stroke-miterlimit: 10;
      }

      .cls-2 {
        stroke: #193353;
        stroke-width: 2px;
      }
    </style>
  </defs>
  <g id="Calque_6" data-name="Calque 6">
    <rect class="cls-2" x="1" y="1" width="119.83" height="26.55"/>
    <g>
      <path class="cls-1" d="M4.83,14.82v2.38h-.74v-6.3h1.73c.67,0,1.2.16,1.57.49s.56.79.56,1.39-.21,1.09-.62,1.47-.97.57-1.67.57h-.83ZM4.83,11.56v2.58h.77c.51,0,.9-.12,1.17-.35.27-.23.4-.56.4-.99,0-.83-.49-1.25-1.48-1.25h-.87Z"/>
      <path class="cls-1" d="M13.65,17.2h-.88l-1.05-1.77c-.1-.16-.19-.3-.28-.42-.09-.12-.18-.21-.28-.28s-.2-.13-.31-.16c-.11-.03-.23-.05-.37-.05h-.61v2.68h-.74v-6.3h1.88c.28,0,.53.03.76.1.23.07.43.17.61.31.17.14.31.32.4.52.1.21.15.46.15.74,0,.22-.03.42-.1.6-.07.18-.16.35-.28.49-.12.14-.27.27-.44.37-.17.1-.36.18-.58.24v.02c.11.05.2.1.27.16.08.06.15.13.22.21s.14.18.21.28c.07.1.15.23.23.36l1.18,1.89ZM9.87,11.56v2.29h1c.18,0,.35-.03.51-.08s.29-.14.41-.24c.11-.1.2-.23.27-.38s.1-.32.1-.51c0-.34-.11-.6-.33-.79-.22-.19-.53-.28-.95-.28h-1.01Z"/>
      <path class="cls-1" d="M16.96,17.3c-.89,0-1.61-.29-2.15-.88-.54-.59-.81-1.35-.81-2.3,0-1.01.27-1.82.82-2.43s1.29-.91,2.24-.91c.87,0,1.57.29,2.1.88.53.59.8,1.35.8,2.3,0,1.03-.27,1.84-.82,2.44s-1.27.9-2.19.9ZM17.02,11.46c-.66,0-1.2.24-1.61.72s-.62,1.1-.62,1.88.2,1.4.6,1.87c.4.47.93.71,1.58.71.69,0,1.24-.23,1.63-.68s.6-1.08.6-1.89-.19-1.48-.58-1.93-.92-.68-1.6-.68Z"/>
      <path class="cls-1" d="M21.95,14.82v2.38h-.74v-6.3h1.73c.67,0,1.2.16,1.57.49s.56.79.56,1.39-.21,1.09-.62,1.47-.97.57-1.67.57h-.83ZM21.95,11.56v2.58h.77c.51,0,.9-.12,1.17-.35.27-.23.4-.56.4-.99,0-.83-.49-1.25-1.48-1.25h-.87Z"/>
      <path class="cls-1" d="M28.79,17.3c-.89,0-1.61-.29-2.15-.88-.54-.59-.81-1.35-.81-2.3,0-1.01.27-1.82.82-2.43s1.29-.91,2.24-.91c.87,0,1.57.29,2.1.88.53.59.8,1.35.8,2.3,0,1.03-.27,1.84-.82,2.44s-1.27.9-2.19.9ZM28.84,11.46c-.66,0-1.2.24-1.61.72s-.62,1.1-.62,1.88.2,1.4.6,1.87c.4.47.93.71,1.58.71.69,0,1.24-.23,1.63-.68s.6-1.08.6-1.89-.19-1.48-.58-1.93-.92-.68-1.6-.68Z"/>
      <path class="cls-1" d="M32.74,16.94v-.87c.1.09.22.17.36.24s.29.13.44.18c.15.05.31.09.46.11s.3.04.43.04c.45,0,.79-.08,1.02-.25.22-.17.34-.41.34-.73,0-.17-.04-.32-.11-.44-.07-.13-.18-.24-.31-.35-.13-.1-.29-.2-.47-.3-.18-.09-.37-.2-.58-.3-.22-.11-.42-.22-.62-.34s-.36-.24-.5-.38-.25-.29-.33-.47c-.08-.17-.12-.38-.12-.61,0-.29.06-.54.19-.75.13-.21.29-.39.5-.52s.44-.24.7-.31.53-.1.8-.1c.62,0,1.07.07,1.36.22v.83c-.37-.26-.85-.39-1.43-.39-.16,0-.32.02-.48.05s-.3.09-.43.16-.23.17-.31.29-.12.27-.12.44c0,.16.03.3.09.42.06.12.15.22.27.32s.26.19.43.28c.17.09.36.19.58.3.23.11.44.23.64.35s.38.26.53.41.27.31.36.5c.09.18.13.39.13.62,0,.31-.06.57-.18.79-.12.21-.29.39-.49.52-.21.13-.44.23-.71.29-.27.06-.55.09-.85.09-.1,0-.22,0-.37-.02s-.3-.04-.45-.07c-.15-.03-.3-.07-.43-.11-.14-.04-.25-.1-.33-.15Z"/>
      <path class="cls-1" d="M41.16,17.2h-3.34v-6.3h3.2v.67h-2.46v2.1h2.28v.66h-2.28v2.21h2.6v.67Z"/>
      <path class="cls-1" d="M46.89,17.2h-.88l-1.05-1.77c-.1-.16-.19-.3-.28-.42-.09-.12-.18-.21-.28-.28s-.2-.13-.31-.16c-.11-.03-.23-.05-.37-.05h-.61v2.68h-.74v-6.3h1.88c.28,0,.53.03.76.1.23.07.43.17.61.31.17.14.31.32.4.52.1.21.15.46.15.74,0,.22-.03.42-.1.6-.07.18-.16.35-.28.49-.12.14-.27.27-.44.37-.17.1-.36.18-.58.24v.02c.11.05.2.1.27.16.08.06.15.13.22.21s.14.18.21.28c.07.1.15.23.23.36l1.18,1.89ZM43.11,11.56v2.29h1c.18,0,.35-.03.51-.08s.29-.14.41-.24c.11-.1.2-.23.27-.38s.1-.32.1-.51c0-.34-.11-.6-.33-.79-.22-.19-.53-.28-.95-.28h-1.01Z"/>
      <path class="cls-1" d="M55.1,17.2h-.82l-.67-1.77h-2.67l-.63,1.77h-.82l2.42-6.3h.76l2.43,6.3ZM53.37,14.77l-.99-2.69c-.03-.09-.06-.23-.1-.42h-.02c-.03.18-.06.32-.1.42l-.98,2.69h2.18Z"/>
      <path class="cls-1" d="M60.51,14.65c0,1.77-.8,2.65-2.4,2.65s-2.29-.85-2.29-2.55v-3.85h.74v3.81c0,1.29.54,1.94,1.63,1.94s1.58-.62,1.58-1.87v-3.87h.74v3.75Z"/>
      <path class="cls-1" d="M68.84,16.93c-.47.25-1.05.37-1.74.37-.9,0-1.61-.29-2.15-.87s-.81-1.33-.81-2.27c0-1.01.3-1.82.91-2.44s1.38-.93,2.31-.93c.6,0,1.09.09,1.49.26v.79c-.45-.25-.95-.38-1.49-.38-.72,0-1.31.24-1.76.73-.45.48-.67,1.13-.67,1.94s.21,1.38.63,1.83c.42.46.97.68,1.65.68.63,0,1.18-.14,1.64-.42v.72Z"/>
      <path class="cls-1" d="M73.4,17.2h-3.27v-6.3h.74v5.63h2.53v.67Z"/>
      <path class="cls-1" d="M79.5,17.2h-.82l-.67-1.77h-2.67l-.63,1.77h-.82l2.42-6.3h.76l2.43,6.3ZM77.77,14.77l-.99-2.69c-.03-.09-.06-.23-.1-.42h-.02c-.03.18-.06.32-.1.42l-.98,2.69h2.18Z"/>
      <path class="cls-1" d="M80.13,16.94v-.87c.1.09.22.17.36.24s.29.13.44.18c.15.05.31.09.46.11s.3.04.43.04c.45,0,.79-.08,1.02-.25.22-.17.34-.41.34-.73,0-.17-.04-.32-.11-.44-.07-.13-.18-.24-.31-.35-.13-.1-.29-.2-.47-.3-.18-.09-.37-.2-.58-.3-.22-.11-.42-.22-.62-.34s-.36-.24-.5-.38-.25-.29-.33-.47c-.08-.17-.12-.38-.12-.61,0-.29.06-.54.19-.75.13-.21.29-.39.5-.52s.44-.24.7-.31.53-.1.8-.1c.62,0,1.07.07,1.36.22v.83c-.37-.26-.85-.39-1.43-.39-.16,0-.32.02-.48.05s-.3.09-.43.16-.23.17-.31.29-.12.27-.12.44c0,.16.03.3.09.42.06.12.15.22.27.32s.26.19.43.28c.17.09.36.19.58.3.23.11.44.23.64.35s.38.26.53.41.27.31.36.5c.09.18.13.39.13.62,0,.31-.06.57-.18.79-.12.21-.29.39-.49.52-.21.13-.44.23-.71.29-.27.06-.55.09-.85.09-.1,0-.22,0-.37-.02s-.3-.04-.45-.07c-.15-.03-.3-.07-.43-.11-.14-.04-.25-.1-.33-.15Z"/>
      <path class="cls-1" d="M84.91,16.94v-.87c.1.09.22.17.36.24s.29.13.44.18c.15.05.31.09.46.11s.3.04.43.04c.45,0,.79-.08,1.02-.25.22-.17.34-.41.34-.73,0-.17-.04-.32-.11-.44-.07-.13-.18-.24-.31-.35-.13-.1-.29-.2-.47-.3-.18-.09-.37-.2-.58-.3-.22-.11-.42-.22-.62-.34s-.36-.24-.5-.38-.25-.29-.33-.47c-.08-.17-.12-.38-.12-.61,0-.29.06-.54.19-.75.13-.21.29-.39.5-.52s.44-.24.7-.31.53-.1.8-.1c.62,0,1.07.07,1.36.22v.83c-.37-.26-.85-.39-1.43-.39-.16,0-.32.02-.48.05s-.3.09-.43.16-.23.17-.31.29-.12.27-.12.44c0,.16.03.3.09.42.06.12.15.22.27.32s.26.19.43.28c.17.09.36.19.58.3.23.11.44.23.64.35s.38.26.53.41.27.31.36.5c.09.18.13.39.13.62,0,.31-.06.57-.18.79-.12.21-.29.39-.49.52-.21.13-.44.23-.71.29-.27.06-.55.09-.85.09-.1,0-.22,0-.37-.02s-.3-.04-.45-.07c-.15-.03-.3-.07-.43-.11-.14-.04-.25-.1-.33-.15Z"/>
      <path class="cls-1" d="M93.33,17.2h-3.34v-6.3h3.2v.67h-2.46v2.1h2.28v.66h-2.28v2.21h2.6v.67Z"/>
      <path class="cls-1" d="M100.97,17.2h-.73v-4.23c0-.33.02-.74.06-1.23h-.02c-.07.28-.13.49-.19.61l-2.15,4.84h-.36l-2.15-4.81c-.06-.14-.12-.36-.19-.65h-.02c.02.25.04.66.04,1.23v4.22h-.71v-6.3h.98l1.93,4.39c.15.34.25.59.29.76h.03c.13-.35.23-.6.3-.77l1.97-4.38h.92v6.3Z"/>
      <path class="cls-1" d="M105.96,17.2h-3.34v-6.3h3.2v.67h-2.46v2.1h2.28v.66h-2.28v2.21h2.6v.67Z"/>
      <path class="cls-1" d="M112.26,17.2h-.91l-3.24-5.02c-.08-.13-.15-.26-.2-.4h-.03c.02.13.04.42.04.87v4.55h-.74v-6.3h.96l3.16,4.94c.13.21.22.35.25.42h.02c-.03-.18-.04-.49-.04-.93v-4.44h.74v6.3Z"/>
      <path class="cls-1" d="M118,10.9l-2.08,3.97v2.33h-.74v-2.31l-2.03-3.99h.84l1.41,2.85s.07.16.15.39h.01c.03-.1.08-.23.17-.39l1.48-2.85h.78Z"/>
    </g>
  </g>
</svg>